HIERARCHY
ROOT Hips
{
	OFFSET 0.000000 0.000000 0.000000 
	CHANNELS 6 Xposition Yposition Zposition Yrotation Xrotation Zrotation
	JOINT Spine
	{
		OFFSET 0.000000 0.072080 0.012321 
		CHANNELS 3 Xrotation Yrotation Zrotation
		JOINT Spine1
		{
			OFFSET 0.000000 0.126984 -0.001294 
			CHANNELS 3 Xrotation Yrotation Zrotation
			JOINT Spine2
			{
				OFFSET 0.000000 0.106559 -0.010096 
				CHANNELS 3 Xrotation Yrotation Zrotation
				JOINT Neck
				{
					OFFSET 0.000000 0.108417 -0.034017 
					CHANNELS 3 Xrotation Yrotation Zrotation
					JOINT Neck1
					{
						OFFSET 0.000000 0.033906 0.007241 
						CHANNELS 3 Xrotation Yrotation Zrotation
						JOINT Head
						{
							OFFSET 0.000000 0.031458 0.006707 
							CHANNELS 3 Xrotation Yrotation Zrotation
							End Site
							{
								OFFSET 0.000000 0.179920 0.000962 
							}
						}
					}
				}
				JOINT LeftShoulder
				{
					OFFSET 0.048002 0.079586 -0.029634 
					CHANNELS 3 Zrotation Xrotation Yrotation
					JOINT LeftArm
					{
						OFFSET 0.096243 -0.008695 -0.014012 
						CHANNELS 3 Zrotation Xrotation Yrotation
						JOINT LeftForeArm
						{
							OFFSET 0.216305 0.000000 0.000000 
							CHANNELS 3 Xrotation Zrotation Yrotation
							JOINT LeftHand
							{
								OFFSET 0.217764 0.000000 0.000000 
								CHANNELS 3 Zrotation Yrotation Xrotation
								JOINT LeftHandThumb1
								{
									OFFSET 0.018582 -0.007835 0.020476 
									CHANNELS 3 Zrotation Xrotation Yrotation
									JOINT LeftHandThumb2
									{
										OFFSET 0.026269 -0.007835 0.022186 
										CHANNELS 3 Zrotation Xrotation Yrotation
										JOINT LeftHandThumb3
										{
											OFFSET 0.035170 -0.010504 0.017018 
											CHANNELS 3 Zrotation Xrotation Yrotation
											End Site
											{
												OFFSET 0.020312 -0.007813 0.007813 
											}
										}
									}
								}
								JOINT LeftHandMiddle1
								{
									OFFSET 0.081749 0.004803 0.003358 
									CHANNELS 3 Zrotation Xrotation Yrotation
									JOINT LeftHandMiddle2
									{
										OFFSET 0.045251 0.000000 0.000000 
										CHANNELS 3 Zrotation Xrotation Yrotation
										JOINT LeftHandMiddle3
										{
											OFFSET 0.029009 0.000000 0.000000 
											CHANNELS 3 Zrotation Xrotation Yrotation
											End Site
											{
												OFFSET 0.017969 0.000000 0.000000 
											}
										}
									}
								}
								JOINT LeftHandIndex1
								{
									OFFSET 0.081207 0.004803 0.021137 
									CHANNELS 3 Zrotation Xrotation Yrotation
									JOINT LeftHandIndex2
									{
										OFFSET 0.043354 0.000000 0.000000 
										CHANNELS 3 Zrotation Xrotation Yrotation
										JOINT LeftHandIndex3
										{
											OFFSET 0.026493 0.000000 0.000000 
											CHANNELS 3 Zrotation Xrotation Yrotation
											End Site
											{
												OFFSET 0.019531 0.000000 0.000000 
											}
										}
									}
								}
								JOINT LeftHandRing1
								{
									OFFSET 0.080666 0.002509 -0.014652 
									CHANNELS 3 Zrotation Xrotation Yrotation
									JOINT LeftHandRing2
									{
										OFFSET 0.042541 0.000000 0.000000 
										CHANNELS 3 Zrotation Xrotation Yrotation
										JOINT LeftHandRing3
										{
											OFFSET 0.029009 0.000000 0.000000 
											CHANNELS 3 Zrotation Xrotation Yrotation
											End Site
											{
												OFFSET 0.015625 0.000000 0.000000 
											}
										}
									}
								}
								JOINT LeftHandPinky1
								{
									OFFSET 0.078227 -0.000612 -0.030993 
									CHANNELS 3 Zrotation Xrotation Yrotation
									JOINT LeftHandPinky2
									{
										OFFSET 0.028721 0.000000 0.000000 
										CHANNELS 3 Zrotation Xrotation Yrotation
										JOINT LeftHandPinky3
										{
											OFFSET 0.021963 0.000000 0.000000 
											CHANNELS 3 Zrotation Xrotation Yrotation
											End Site
											{
												OFFSET 0.022656 0.000000 0.000000 
											}
										}
									}
								}
							}
						}
					}
				}
				JOINT RightShoulder
				{
					OFFSET -0.047970 0.079586 -0.029634 
					CHANNELS 3 Zrotation Xrotation Yrotation
					JOINT RightArm
					{
						OFFSET -0.096274 -0.008695 -0.014012 
						CHANNELS 3 Zrotation Xrotation Yrotation
						JOINT RightForeArm
						{
							OFFSET -0.216305 0.000000 0.000000 
							CHANNELS 3 Xrotation Zrotation Yrotation
							JOINT RightHand
							{
								OFFSET -0.217764 0.000000 0.000000 
								CHANNELS 3 Zrotation Yrotation Xrotation
								JOINT RightHandThumb1
								{
									OFFSET -0.019670 -0.007318 0.019638 
									CHANNELS 3 Zrotation Xrotation Yrotation
									JOINT RightHandThumb2
									{
										OFFSET -0.025498 -0.008492 0.023179 
										CHANNELS 3 Zrotation Xrotation Yrotation
										JOINT RightHandThumb3
										{
											OFFSET -0.034504 -0.010705 0.016680 
											CHANNELS 3 Zrotation Xrotation Yrotation
											End Site
											{
												OFFSET -0.020312 -0.007813 0.007813 
											}
										}
									}
								}
								JOINT RightHandIndex1
								{
									OFFSET -0.081770 0.003825 0.021187 
									CHANNELS 3 Zrotation Xrotation Yrotation
									JOINT RightHandIndex2
									{
										OFFSET -0.042006 0.000000 0.000000 
										CHANNELS 3 Zrotation Xrotation Yrotation
										JOINT RightHandIndex3
										{
											OFFSET -0.026449 0.000000 0.000000 
											CHANNELS 3 Zrotation Xrotation Yrotation
											End Site
											{
												OFFSET -0.020312 0.000000 0.000000 
											}
										}
									}
								}
								JOINT RightHandMiddle1
								{
									OFFSET -0.084059 0.003825 0.003342 
									CHANNELS 3 Zrotation Xrotation Yrotation
									JOINT RightHandMiddle2
									{
										OFFSET -0.043881 0.000000 0.000000 
										CHANNELS 3 Zrotation Xrotation Yrotation
										JOINT RightHandMiddle3
										{
											OFFSET -0.029191 0.000000 0.000000 
											CHANNELS 3 Zrotation Xrotation Yrotation
											End Site
											{
												OFFSET -0.017969 0.000000 0.000000 
											}
										}
									}
								}
								JOINT RightHandRing1
								{
									OFFSET -0.081798 0.003030 -0.015127 
									CHANNELS 3 Zrotation Xrotation Yrotation
									JOINT RightHandRing2
									{
										OFFSET -0.042198 0.000000 0.000000 
										CHANNELS 3 Zrotation Xrotation Yrotation
										JOINT RightHandRing3
										{
											OFFSET -0.026497 0.000000 0.000000 
											CHANNELS 3 Zrotation Xrotation Yrotation
											End Site
											{
												OFFSET -0.017188 0.000000 0.000000 
											}
										}
									}
								}
								JOINT RightHandPinky1
								{
									OFFSET -0.077902 -0.000930 -0.030891 
									CHANNELS 3 Zrotation Xrotation Yrotation
									JOINT RightHandPinky2
									{
										OFFSET -0.028538 0.000000 0.000000 
										CHANNELS 3 Zrotation Xrotation Yrotation
										JOINT RightHandPinky3
										{
											OFFSET -0.021734 0.000000 0.000000 
											CHANNELS 3 Zrotation Xrotation Yrotation
											End Site
											{
												OFFSET -0.022656 0.000000 0.000000 
											}
										}
									}
								}
							}
						}
					}
				}
			}
		}
	}
	JOINT LeftUpLeg
	{
		OFFSET 0.075264 -0.025573 0.000000 
		CHANNELS 3 Xrotation Yrotation Zrotation
		JOINT LeftLeg
		{
			OFFSET 0.000000 -0.326016 -0.013516 
			CHANNELS 3 Xrotation Yrotation Zrotation
			JOINT LeftFoot
			{
				OFFSET 0.000098 -0.306172 -0.006623 
				CHANNELS 3 Xrotation Yrotation Zrotation
				JOINT LeftToeBase
				{
					OFFSET -0.001432 -0.095259 0.064705 
					CHANNELS 3 Xrotation Yrotation Zrotation
					End Site
					{
						OFFSET 0.000000 0.000000 0.079438 
					}
				}
			}
		}
	}
	JOINT RightUpLeg
	{
		OFFSET -0.075264 -0.025573 0.000000 
		CHANNELS 3 Xrotation Yrotation Zrotation
		JOINT RightLeg
		{
			OFFSET 0.000000 -0.326016 -0.013516 
			CHANNELS 3 Xrotation Yrotation Zrotation
			JOINT RightFoot
			{
				OFFSET 0.000098 -0.306172 -0.006623 
				CHANNELS 3 Xrotation Yrotation Zrotation
				JOINT RightToeBase
				{
					OFFSET -0.001432 -0.095259 0.064705 
					CHANNELS 3 Xrotation Yrotation Zrotation
					End Site
					{
						OFFSET 0.000025 0.000000 0.079438 
					}
				}
			}
		}
	}
}
MOTION
Frames: 5
Frame Time: 0.033333
0.000184 0.742322 0.000019 -2.861600 -4.307200 1.666100 6.321400 -2.219100 -0.148100 0.584400 -0.628600 -0.173300 0.586600 -0.622300 -0.171100 -1.352800 -0.196500 -0.604600 -0.000000 0.000000 -0.000000 -1.737800 -5.369100 4.365800 -17.300200 1.003700 -0.682200 -56.049301 7.496700 -5.889900 0.000000 -0.000000 -13.104500 -1.131600 -2.550200 12.899300 3.827600 -2.715700 4.256100 -0.095400 9.001300 15.027000 15.644500 -12.233400 -25.458599 -33.057400 0.002900 0.852600 -38.160400 0.003200 -0.009300 -14.637600 0.000500 -0.003800 -20.020201 0.003100 -1.919100 -41.113201 0.003700 -0.009900 -18.580900 0.000800 -0.004800 -39.377300 0.004000 3.839200 -33.896900 0.002600 -0.008400 -17.175301 0.000700 -0.004500 -42.296101 0.004500 -0.304600 -38.474998 0.003300 -0.009300 -26.143000 0.001500 -0.006600 19.122601 1.606100 2.750400 60.948399 8.026800 3.829800 0.000000 0.000000 6.440800 3.792100 -3.583800 4.355100 -8.020300 2.296400 -6.151300 7.391600 10.001100 -9.516600 -21.477200 -20.050200 12.215200 25.662001 0.009400 3.432100 29.325100 0.001000 0.003900 16.695101 0.000300 0.002300 35.001801 0.001600 -0.311700 31.301399 0.001200 0.004100 20.641800 0.000500 0.002800 36.544800 0.001800 -4.275200 41.345200 0.002000 0.005200 15.854400 0.000300 0.002200 33.198700 -0.140600 -1.516300 28.579901 0.001000 0.003800 19.848801 0.000500 0.002700 -5.111700 10.962200 4.874200 18.710300 -4.123700 -1.420400 -9.370400 0.203500 -1.824800 -0.363900 0.000000 -0.000000 -28.658100 -5.406700 -1.349400 64.616402 0.179200 1.189800 1.855800 0.014200 -0.876800 -2.297700 -0.000000 0.000000 
0.001378 0.743102 0.031402 -2.971200 -3.707900 1.118200 6.181900 -3.653300 0.726400 0.595200 -1.040600 -0.010100 0.597900 -1.035300 -0.005300 -1.382600 -0.094600 -0.604600 -0.000000 0.000000 -0.000000 -2.086900 -4.883400 4.216600 -17.175501 1.168900 -1.393700 -54.363300 8.639100 -8.719300 0.000000 -0.000000 -15.458400 -1.550200 -3.938300 9.390400 3.827700 -2.715700 4.256200 -0.026700 8.971200 14.904900 16.069300 -12.329500 -25.854401 -32.732899 0.002900 0.840700 -38.150501 0.003200 -0.009300 -14.614300 0.000500 -0.003800 -19.725201 0.003100 -1.879600 -41.592300 0.003800 -0.010000 -18.550600 0.000800 -0.004800 -38.929501 0.003900 3.798300 -33.873901 0.002600 -0.008400 -17.198799 0.000700 -0.004400 -41.899200 0.004400 -0.374400 -38.389999 0.003300 -0.009300 -26.105801 0.001500 -0.006600 18.806200 1.384100 1.949600 62.279800 8.485300 0.585800 -0.000000 -0.000000 7.079200 4.546500 -4.111600 5.157100 -8.020300 2.296400 -6.151300 7.445600 10.001100 -9.610100 -21.675400 -20.209900 12.275300 26.114700 0.009500 3.528900 29.325199 0.001000 0.003900 16.499201 0.000300 0.002200 35.319302 0.001700 -0.222700 31.279400 0.001100 0.004100 20.790199 0.000500 0.002800 36.868301 0.001800 -4.068200 41.340199 0.002000 0.005200 15.940500 0.000300 0.002200 33.320900 -0.140600 -1.359700 28.568199 0.001000 0.003800 19.934500 0.000500 0.002700 -2.759500 11.326000 4.932300 18.250799 -4.123400 -1.222400 -11.336800 0.107400 -0.985700 -0.563500 0.000000 -0.031100 -31.754801 -5.358900 -0.668200 56.127701 -1.799700 1.602100 0.344800 0.037400 -1.003500 -1.592500 0.000000 -0.000000 
0.001727 0.741215 0.062442 -3.505300 -2.971600 0.509800 5.992600 -4.664200 1.663300 0.581500 -1.340900 0.162100 0.583200 -1.337000 0.168800 -1.415900 -0.000600 -0.598200 -0.000000 0.000000 -0.000000 -2.472000 -4.295600 3.955300 -17.299299 1.285100 -1.854400 -52.019699 9.773800 -11.347300 -0.000000 0.000000 -18.274500 -0.859300 -4.734400 6.819500 3.827700 -2.715700 4.256200 0.022300 8.949700 14.817600 16.513901 -12.429700 -26.272100 -32.300499 0.002800 0.860400 -38.205799 0.003200 -0.009300 -14.617600 0.000500 -0.003800 -19.549801 0.003100 -1.875900 -41.544701 0.003800 -0.010000 -18.611700 0.000800 -0.004800 -38.423401 0.003800 3.760200 -33.804501 0.002500 -0.008400 -17.221500 0.000700 -0.004400 -41.415699 0.004300 -0.399700 -38.316299 0.003200 -0.009300 -26.103201 0.001500 -0.006600 18.698500 1.231200 1.367200 63.178001 8.538400 -2.997600 -0.000000 0.000000 7.809500 4.685300 -3.997500 5.031900 -8.020300 2.296400 -6.151300 7.461100 10.001100 -9.636900 -21.275700 -19.821501 12.154800 25.694099 0.009400 3.484100 29.325100 0.001000 0.003900 16.232901 0.000300 0.002200 35.306400 0.001700 -0.451300 31.247400 0.001100 0.004100 20.917700 0.000500 0.002800 36.693199 0.001800 -3.966700 41.183601 0.002000 0.005200 16.001301 0.000300 0.002200 33.001598 -0.140600 -1.300800 28.300501 0.000900 0.003800 20.000999 0.000500 0.002700 -0.587500 11.766000 5.097900 18.210400 -3.643700 -0.991700 -14.580100 0.014900 -0.323100 -0.520500 0.000000 0.000000 -33.180199 -4.765100 0.336800 44.397499 -5.190800 1.501400 0.379800 0.053000 -1.206600 -0.627200 -0.000000 0.000000 
0.001216 0.737118 0.094066 -4.374700 -2.471800 0.052600 5.938700 -5.417300 2.470700 0.634200 -1.571400 0.278200 0.634900 -1.567500 0.287200 -1.452500 0.104600 -0.566800 -0.000000 0.000000 -0.000000 -3.204400 -3.333000 3.675200 -17.490999 1.303200 -1.890100 -49.442501 10.077600 -14.294600 -0.000000 0.000000 -20.533100 0.513200 -4.959200 5.381400 3.827700 -2.715700 4.256200 0.047100 8.938800 14.773500 16.792700 -12.488400 -26.536301 -31.848600 0.002700 0.864900 -38.239700 0.003200 -0.009300 -14.651000 0.000500 -0.003800 -19.315001 0.008800 -1.866200 -41.557800 0.003800 -0.010000 -18.670200 0.000800 -0.004800 -38.029499 0.003700 3.730600 -33.783001 0.002500 -0.008300 -17.223499 0.000700 -0.004400 -40.951000 0.004300 -0.510900 -38.242699 0.003200 -0.009300 -26.103300 0.001500 -0.006600 18.851900 1.131900 0.949300 63.761002 8.129900 -6.256000 0.000000 0.000000 8.165000 3.529000 -3.569100 4.803700 -8.020300 2.296400 -6.151300 7.493400 10.001100 -9.692900 -21.313700 -19.840300 12.166300 25.311701 0.009400 3.292500 29.325100 0.001000 0.003900 16.247000 0.000300 0.002200 35.000198 0.001600 -0.626200 31.208401 0.001100 0.004100 20.927799 0.000500 0.002800 36.351101 0.001700 -4.039700 41.046600 0.001900 0.005200 16.047899 0.000300 0.002200 32.703800 -0.137300 -1.410900 28.130100 0.000900 0.003700 20.022699 0.000500 0.002700 1.989100 12.610800 5.366800 18.067200 -3.134800 -1.138500 -17.813000 -0.046400 -0.020000 -0.792200 0.000000 0.000000 -31.962700 -4.092300 1.304100 28.390100 -8.426700 1.004900 2.763500 0.040300 -1.324200 -0.412900 -0.000000 0.000000 
0.000209 0.721337 0.130914 -5.378600 -2.105400 0.193100 4.897900 -5.984100 2.726500 1.101900 -1.733500 0.216000 1.101300 -1.731700 0.214400 -1.508500 0.189500 -0.536000 -0.000000 0.000000 -0.000000 -3.781300 -2.504300 3.588500 -17.630199 1.266000 -1.708600 -47.236198 9.504000 -17.113400 0.000000 0.000000 -21.872101 1.691200 -5.228600 5.020000 3.827700 -2.715700 4.256200 0.097400 8.916700 14.683700 16.950800 -12.519100 -26.685101 -31.502100 0.002700 0.870600 -38.210201 0.003200 -0.009300 -14.644600 0.000500 -0.003800 -19.100401 0.021400 -1.778900 -41.575901 0.003800 -0.010000 -18.677099 0.000800 -0.004800 -37.642399 0.003700 3.674700 -33.779202 0.002500 -0.008300 -17.241600 0.000700 -0.004500 -40.640499 0.004200 -0.646300 -38.230999 0.003200 -0.009300 -26.105700 0.001500 -0.006600 18.930901 1.018200 0.490800 64.238800 6.642000 -9.092400 0.000000 0.000000 7.751000 1.612300 -3.565500 5.739500 -8.020200 2.296400 -6.151300 7.577300 10.001100 -9.837700 -21.609699 -20.077200 12.256000 25.018999 0.021300 2.938700 29.325100 0.001000 0.003900 16.519600 0.000300 0.002200 34.606098 0.001600 -0.869900 31.152599 0.001100 0.004100 20.776899 0.000500 0.002800 36.070000 0.001600 -4.526800 40.841999 0.001900 0.005200 15.985700 0.000300 0.002200 32.693100 -0.115500 -1.707500 28.090401 0.000900 0.003700 19.932400 0.000500 0.002700 1.751600 13.045600 5.956600 25.470501 -2.803000 -1.417800 -24.831400 0.068400 -0.361300 -1.704100 0.000000 0.000000 -33.688301 -4.028300 1.357200 19.808500 -8.713200 0.484800 0.725800 -0.911700 -0.061200 0.914500 -0.000000 -0.000000 
